<svg xmlns:xlink="http://www.w3.org/1999/xlink" width="178" height="179" viewBox="0 0 178 179" fill="none" xmlns="http://www.w3.org/2000/svg"><path d="M134.135 133.431C128.406 139.415 121.563 144.204 113.995 147.525C106.428 150.846 98.285 152.634 90.0316 152.786C81.7782 152.938 73.5759 151.452 65.8929 148.412C58.21 145.372 51.1969 140.838 45.254 135.069L59.8467 119.827C63.8018 123.666 68.4691 126.683 73.5822 128.706C78.6953 130.73 84.1541 131.719 89.6469 131.618C95.1396 131.516 100.559 130.327 105.595 128.116C110.631 125.906 115.186 122.719 118.999 118.736L134.135 133.431Z" fill="#5d5d5d"></path><path d="M41.2092 48.2441C47.236 41.1825 54.7359 35.5467 63.174 31.7386C71.6121 27.9305 80.7806 26.0439 90.0259 26.2133L89.6434 47.3816C83.4905 47.2689 77.3887 48.5244 71.773 51.0588C66.1573 53.5931 61.1661 57.3438 57.1551 62.0435L41.2092 48.2441Z" fill="#3FCF8E"></path><path d="M26.1596 93.6707C25.55 84.3797 26.9837 75.0678 30.3582 66.3988C33.7327 57.7299 38.9651 49.9173 45.6821 43.5182L60.1319 58.8979C55.6615 63.1566 52.1794 68.3559 49.9336 74.1253C47.6878 79.8946 46.7337 86.0918 47.1393 92.2751L26.1596 93.6707Z" fill="#b0aeaf"></path><path d="M45.6983 135.496C38.9789 129.1 33.7438 121.289 30.3661 112.621C26.9884 103.953 25.5514 94.6421 26.1576 85.3509L47.1378 86.7388C46.7344 92.9222 47.6908 99.1191 49.9387 104.888C52.1865 110.656 55.6706 115.854 60.1425 120.111L45.6983 135.496Z" fill="#BFDBFE"></path><path d="M88.883 26.2036C101.315 26.2036 113.469 29.9159 123.806 36.871C134.143 43.8261 142.2 53.7117 146.957 65.2777C151.715 76.8436 152.96 89.5704 150.534 101.849C148.109 114.127 142.122 125.406 133.331 134.258L118.464 119.287C124.314 113.396 128.299 105.89 129.913 97.7184C131.527 89.547 130.699 81.0771 127.532 73.3798C124.366 65.6824 119.004 59.1034 112.125 54.4747C105.245 49.846 97.157 47.3754 88.883 47.3754V26.2036Z" fill="#33996B"></path></svg>